<svg width="1440" height="1875" viewBox="0 0 1440 1875" fill="none" xmlns="http://www.w3.org/2000/svg">
<g clip-path="url(#clip0_2_107)">
<path d="M1098.61 -5.29786C1092.82 10.6623 1083.07 25.0608 1071.9 38.2848C1060.71 51.5619 1048.1 63.7929 1035.76 76.5512C1023.42 89.3854 1011.58 102.864 1001.44 117.78C991.429 132.663 982.62 149.078 979.417 167.563C979.325 168.13 979.371 168.685 979.522 169.2C972.928 173.575 966.608 178.452 960.859 184.128C959.655 176.168 958.621 168.205 958.102 160.212C957.838 154.769 957.616 149.329 957.758 143.905C957.832 138.469 958.606 132.951 958.995 127.476L962.029 94.3271C963.957 72.049 965.056 49.6998 965.329 27.3399C965.332 27.118 965.202 26.9123 965.08 26.7088C966.501 24.3038 967.63 21.6059 968.087 18.8188C968.627 15.5863 968.469 12.5154 968.212 9.70606C967.577 3.98638 966.893 -0.646282 966.634 -6.0695C965.907 -16.7652 964.923 -27.4617 963.56 -38.1301C960.811 -59.4536 956.492 -80.7048 949.657 -101.271C942.808 -121.808 933.238 -141.602 920.652 -159.401C908.038 -177.147 892.262 -192.9 873.653 -204.622L851.57 -218.533L867.812 -198.1C880.581 -182.035 886.203 -161.174 888.385 -140.321C890.663 -119.338 889.404 -97.8493 890.01 -76.0642C890.647 -54.4122 892.894 -31.7472 902.985 -11.3188C907.933 -1.22031 914.57 8.14465 922.931 15.9267C931.281 23.6671 941.613 29.7194 953.03 32.2652C954.24 32.5053 955.395 32.2367 956.311 31.6389C955.956 52.3081 954.959 72.9669 953.177 93.5625L950.129 126.889C949.732 132.509 948.955 138.042 948.875 143.73C948.73 149.434 948.957 155.111 949.236 160.783C952.054 202.347 965.168 241.704 967.623 281.658C938.428 252.572 905.736 226.979 869.064 207.558C861.7 203.676 854.062 200.311 846.571 196.665C838.872 193.48 831.072 190.525 823.319 187.469C816.065 184.946 808.726 182.701 801.34 180.648C801.381 180.018 801.314 179.375 801.06 178.746C796.763 168.296 790.869 158.291 783.663 149.521C778.785 143.623 773.535 138.205 768.071 133.048C768.377 132.442 768.589 131.785 768.568 131.064C767.977 109.094 766.593 86.9734 763.078 65.0656C759.428 43.19 754.124 21.5826 746.008 0.768662C737.84 -19.9588 726.85 -39.7405 712.547 -57.0728C708.965 -61.3948 705.171 -65.5414 701.201 -69.5244C699.151 -71.4484 697.178 -73.4577 695.058 -75.3074L689.367 -80.2562C688.343 -81.0997 687.287 -82.1551 686.29 -82.8244L684.232 -79.2782L682.174 -75.7318C681.533 -74.6382 680.633 -73.0941 680.474 -72.6858L678.561 -68.7932C677.442 -66.1354 676.26 -63.4909 675.402 -60.7414C673.516 -55.2977 672.19 -49.6808 671.387 -44.0185C668.043 -21.3277 672.156 1.7781 680.315 22.6017C688.418 43.5603 700.017 62.6173 711.647 81.185C717.483 90.4104 723.195 99.9155 730.212 108.841C737.173 117.913 746.005 125.379 754.172 132.415C762.292 139.46 770.062 147.009 776.779 155.138C782.488 162.102 787.155 169.75 790.93 177.92C785.702 176.617 780.463 175.376 775.197 174.266C742.658 167.495 709.681 164.166 676.885 161.305C672.682 160.937 668.912 161.327 666.461 162.198C668.181 160.794 668.585 158.295 667.236 156.361C654.195 137.759 636.268 123.174 616.76 112.336C597.297 101.386 575.734 94.1843 554.622 88.8855C533.69 83.0628 512.523 76.3485 490.147 73.8634C478.996 72.6492 467.524 72.5909 456.234 74.6226C444.954 76.613 433.984 80.8285 424.247 86.945L397.537 103.725L427.863 94.9647C448.779 88.9219 472.089 91.5254 491.47 101.507C501.274 106.407 509.657 113.416 517.157 121.652C524.671 129.898 531.416 139.136 539.006 148.044C554.006 166.049 574.161 181.106 597.806 186.793C609.616 189.853 622.463 189.241 634.038 185.957C645.7 182.68 656.683 176.999 665.883 168.888C666.223 168.575 666.432 168.196 666.656 167.828C668.944 168.943 672.299 169.826 676.114 170.161C708.834 173.013 741.463 176.323 773.382 182.969C789.32 186.332 805.053 190.53 820.378 195.859C827.921 198.844 835.514 201.714 843.009 204.811C850.302 208.369 857.74 211.641 864.92 215.422C922.521 245.918 970.453 292.288 1010.37 343.807C1024.97 362.646 1038.57 382.27 1051.4 402.399C1017.86 391.442 984.087 380.775 949.493 372.788C912.143 364.199 873.672 358.434 834.913 360.224C823.468 360.784 812.131 362.011 800.87 363.624C792.034 362.049 783.481 358.796 775.852 354.043C767.853 349.14 761.213 342.547 755.269 334.921C749.332 327.351 743.758 318.976 737.579 311.035C731.453 303.067 724.961 295.324 717.946 288.012C703.951 273.44 687.601 260.479 668.67 252.205C649.92 243.941 628.565 240.122 607.889 244.13L579.115 249.709L608.26 252.909C623.075 254.535 636.823 262.689 647.996 273.275C659.268 283.883 668.244 297.069 677.362 310.321C681.943 316.968 686.55 323.64 691.678 330.151C696.83 336.633 702.707 342.949 710.139 347.757C717.501 352.629 726.914 355.113 735.69 354.536C743.218 354.161 750.253 352.307 756.976 350.196C761.263 354.471 765.957 358.414 771.159 361.587C774.397 363.604 777.818 365.3 781.311 366.837C761.176 370.561 741.288 375.351 721.572 380.258L612.071 407.897C612.553 402.926 611.442 397.901 609.408 393.842C605.673 386.31 600.502 381.012 596.089 375.316L568.633 341.376L541.104 307.415C531.785 296.19 520.797 284.599 505.897 278.779C498.572 275.937 490.38 274.474 482.227 275.712C473.999 276.918 466.87 280.74 460.537 284.605C448.263 292.408 435.055 300.243 425.546 313.063C423.302 316.253 420.989 319.548 419.727 324.12C418.269 328.676 419.61 334.527 422.103 338.037C424.531 341.808 427.32 344.335 429.774 346.994C432.362 349.637 434.944 352.294 437.727 354.836C443.102 359.838 449.143 364.535 455.938 368.048C444.691 369.187 433.537 371.172 422.493 373.814C417.097 375.245 411.574 377.188 406.48 380.344C401.344 383.512 396.857 388.016 393.988 393.618C391.024 399.124 390.176 406.348 392.23 412.512C394.235 418.719 398.143 423.462 401.839 427.522C405.567 431.619 409.383 435.244 412.3 439.136C415.275 442.91 417.127 447.206 418.68 452.095C420.229 456.941 421.398 462.184 423.163 467.544C424.946 472.993 427.558 478.409 431.515 483.089C435.357 487.755 441.304 491.751 448.107 492.312C454.892 492.885 460.757 490.476 465.766 488.223L488.193 477.475C473.992 497.945 466.183 522.79 466.598 547.784C466.632 551.867 466.773 556.051 467.843 560.563C468.847 565.079 471.423 569.592 474.579 572.835C481.098 579.433 488.45 582.961 495.929 586.528C503.512 589.895 511.825 592.361 520.542 592.555C529.294 592.817 538.219 590.405 545.63 585.362C549.29 582.782 552.663 579.579 555.099 575.626C557.588 571.692 559.079 567.216 559.74 562.843C561.006 554.031 559.717 545.873 559.422 538.271C558.951 530.61 559.904 523.783 563.021 517.164C566.036 510.584 570.638 504.564 575.82 498.973C586.152 487.804 599.436 478.134 608.88 463.983C613.62 457.046 616.935 448.472 617.573 439.798C618.182 432.437 616.919 424.447 612.856 417.69C612.858 417.409 612.911 417.129 612.861 416.857L723.727 388.873C749.408 382.472 775.208 376.342 801.199 372.557C801.5 372.532 801.799 372.533 802.08 372.426C813.13 370.84 824.212 369.64 835.338 369.099C871.85 367.405 908.512 372.677 944.388 380.766C918.902 388.857 893.481 397.532 868.868 408.525C849.203 417.3 830.004 427.71 812.367 440.411C804.051 438.197 795.284 437.863 786.934 439.238C777.886 440.703 769.318 443.893 761.384 447.994C745.514 456.288 731.918 467.983 720.301 481.149C708.807 494.216 698.6 508.015 687.305 520.55C681.665 526.813 675.76 532.758 669.369 538.02C667.818 539.401 666.118 540.563 664.489 541.826C663.667 542.448 662.855 543.084 661.986 543.627L658.435 545.986C654.954 548.26 649.828 550.533 645.337 552.824L631.915 559.341L650.914 560.964C652.528 561.065 654.006 561.267 655.729 561.285L661.193 561.117L666.442 560.929L669.426 560.528C677.378 559.432 685.11 557.257 692.475 554.337C707.225 548.462 720.521 539.768 732.469 529.741C756.315 509.526 774.737 484.805 796.755 464.477C818.714 444.182 844.986 428.909 872.499 416.632C900.066 404.319 928.923 394.821 957.964 385.77C958.73 385.531 959.347 385.083 959.878 384.557C992.534 392.72 1024.73 402.967 1056.87 413.513C1057.37 413.677 1057.89 413.703 1058.39 413.622C1060.74 417.416 1063.12 421.185 1065.42 425.01C1073.86 439.042 1081.93 453.302 1089.66 467.777L1101.38 489.413L1112.62 511.316C1142.5 569.792 1169.68 629.679 1197.49 689.341C1198.64 691.823 1199.81 694.3 1200.97 696.781C1181.04 686.565 1159.3 682.575 1138.4 678.243C1138.24 677.556 1137.97 676.872 1137.52 676.237C1107.63 632.752 1067.3 596.535 1020.84 571.587C997.655 559.054 973.021 549.179 947.542 542.351C941.233 540.414 934.705 539.333 928.289 537.809C925.084 537.018 921.807 536.603 918.555 536.044L900.815 533.169L899.619 532.978C899.316 532.982 898.515 532.637 898.986 533.181L900.176 535.302L902.556 539.543L907.314 548.025L910.231 552.792C911.122 554.195 911.934 555.645 912.891 557.004C916.562 562.534 920.39 567.966 924.533 573.145C957.501 614.999 1003.78 644.353 1052.74 663.049C1077.29 672.531 1102.64 679.62 1128.23 685.169C1151.45 690.249 1175.04 693.814 1195.47 703.921C1117.14 710.071 1040.87 739.002 978.03 786.106C975.947 787.565 974.002 789.207 971.996 790.769L963.395 797.59C961.6 799.132 959.346 800.727 957.983 802.223L964.632 805.567C966.759 806.632 969.252 807.946 971.072 808.623C972.305 809.118 973.516 809.679 974.77 810.116C984.771 813.744 995.342 815.489 1005.84 815.546C1026.85 815.729 1047.54 809.758 1065.78 800.19C1084.15 790.706 1100.51 778.217 1116.03 765.261C1123.76 758.724 1131.52 752.371 1138.96 745.079C1146.31 737.832 1153.24 729.45 1157.47 719.318C1157.69 718.764 1157.78 718.198 1157.75 717.644C1173.18 714.91 1188.75 713.041 1204.39 712.145C1205.6 712.062 1206.61 711.32 1207.28 710.28C1231.99 762.908 1257.53 815.259 1286.39 865.912C1319.01 923.245 1355.93 978.505 1399.74 1028.17C1410.25 1040.97 1422.27 1052.4 1433.81 1064.27C1438.09 1068.8 1442.58 1073.13 1447.14 1077.4C1437.44 1075.79 1427.64 1075.49 1418 1075.73C1411.61 1075.93 1405.28 1076.47 1398.98 1077.16C1398.9 1075.86 1398.32 1074.5 1397.23 1073.4C1358.17 1034.28 1304.03 1010.84 1248.75 1009.28C1221.16 1008.52 1194.22 1012.55 1167.65 1012.07C1161 1012.04 1154.44 1011.48 1147.9 1010.76L1143.05 1010.02L1140.62 1009.64L1139.98 1009.54L1138.86 1009.26L1136.63 1008.7L1118.33 1004.08L1113.61 1002.86C1112.97 1002.75 1111.71 1002.25 1111.58 1002.46L1113.21 1004.36L1119.71 1011.97L1126.22 1019.57L1129.48 1023.38C1130.11 1024.14 1130.4 1024.42 1130.68 1024.7L1131.58 1025.62C1136.41 1030.56 1141.17 1035.56 1146.45 1040.01C1187.75 1076.58 1242.17 1097.98 1297.39 1098.78C1304.29 1099.12 1311.19 1098.5 1318.08 1098.22C1324.93 1097.46 1331.86 1096.87 1338.55 1095.71L1378.54 1088.89C1391.8 1086.77 1405.07 1085.01 1418.29 1084.61C1431.46 1084.27 1444.75 1084.9 1457.01 1088.73C1457.95 1089.03 1458.89 1088.99 1459.78 1088.81C1463.3 1091.87 1466.85 1094.9 1470.41 1097.9C1495.95 1119.05 1523.77 1137.84 1554.16 1151.75C1569.34 1158.7 1585.13 1164.4 1601.38 1168.48C1617.62 1172.55 1634.22 1174.93 1650.81 1176.23C1684.07 1178.7 1717.25 1176.66 1750.07 1174.08C1757.18 1173.52 1762.82 1171.05 1762.62 1168.61C1762.42 1166.18 1756.46 1164.66 1749.37 1165.22C1716.65 1167.8 1683.92 1169.79 1651.48 1167.37C1635.3 1166.1 1619.21 1163.79 1603.53 1159.87C1587.86 1155.93 1572.59 1150.42 1557.86 1143.68C1528.37 1130.17 1501.17 1111.84 1476.08 1091.06C1465.22 1081.92 1454.51 1072.55 1444.49 1062.44C1444.75 1061.93 1444.88 1061.41 1444.73 1060.93C1438.15 1041.52 1432.22 1021.87 1427.05 1002.03C1427.32 1001.51 1427.49 1000.95 1427.52 1000.36C1427.79 994.549 1428.91 988.526 1430.59 982.794C1432.3 977.133 1434.56 971.374 1437.82 967.234C1439.23 965.442 1441.78 963.248 1444.02 961.423C1446.36 959.541 1448.82 957.764 1451.37 956.048C1456.46 952.611 1461.88 949.416 1467.3 945.985C1488.96 932.177 1508.94 915.359 1525.16 895.177C1541.43 875.133 1553.85 851.578 1559.92 826.244C1566.14 801.032 1566.06 774.001 1558.3 748.915L1547.63 714.382L1549.63 750.481C1550.66 769.002 1542.93 787.255 1532.01 802.777C1521.09 818.497 1506.62 831.661 1492.3 845.261C1478.04 858.857 1463.4 873.043 1453 890.853C1442.77 908.303 1436.21 929.534 1440.59 950.598C1440.74 951.229 1441 951.788 1441.35 952.276C1437.73 955.009 1434.2 958.052 1430.87 961.699C1426.33 967.589 1424.04 973.915 1422.06 980.284C1421.99 980.53 1421.96 980.784 1421.89 981.032C1415.81 954.832 1411.09 928.336 1407.98 901.631C1401.72 848.379 1401.99 794.382 1409.1 741.251C1414.97 742.914 1420.83 743.287 1426.52 743.085C1433.22 742.82 1439.76 741.799 1446.2 740.142C1459.32 736.908 1470.97 729.821 1481.27 722.123C1501.71 706.53 1520.48 689.154 1537.78 670.291C1546.18 660.918 1555.52 651.176 1560.41 637.962C1562.76 631.39 1563.74 624.2 1562.5 617.011C1561.89 613.431 1560.63 609.888 1558.77 606.652C1557.8 605.026 1556.54 603.079 1554.06 601.563C1551.54 599.964 1548.04 599.999 1545.8 600.853C1541.46 602.554 1539.25 604.78 1537.61 605.056C1536.08 605.519 1534.06 605.11 1531.96 603.855C1527.62 601.494 1524.88 596.322 1520.14 590.906C1517.82 588.279 1514.56 585.603 1510.82 584.224C1507.04 582.708 1502.34 582.642 1498.54 583.947C1493.36 585.866 1489.6 588.8 1486.17 591.723C1485.09 586.4 1482.97 581.309 1479.95 577.019C1473.73 567.631 1464.44 560.619 1454.35 556.453C1444.28 552.21 1433.67 550.32 1423.33 549.111C1418.12 548.523 1413.07 548.063 1407.83 547.663C1402.59 547.305 1397.11 547.132 1391.47 548.06C1385.8 549.035 1380.09 551.074 1375.28 555.662C1374.08 556.898 1372.9 558.467 1372.18 560.48C1371.43 562.548 1371.46 564.748 1371.7 566.341C1372.25 569.577 1372.7 571.377 1373.03 573.913C1374.62 585.601 1373.13 597.48 1370.48 609.387C1368.2 606.385 1365.5 603.919 1363.09 601.774C1358.12 597.358 1353.15 593.473 1350.13 588.923C1348.69 586.604 1347.69 584.465 1347.36 581.768C1346.96 579.035 1347.05 575.779 1346.56 572.099C1345.57 564.786 1342.42 557.735 1337.08 552.305C1331.86 546.82 1323.8 543.511 1316.08 544.146C1312.21 544.423 1308.33 545.469 1304.87 547.544C1301.38 549.519 1298.44 552.807 1296.62 556.117C1292.95 562.877 1292.04 569.258 1289.1 574.006C1286.23 579.053 1281.9 583.743 1277.84 589.222C1273.78 594.556 1270.02 601.676 1269.62 609.229C1269.08 616.679 1270.82 623.649 1272.95 630.051C1277.33 642.722 1283.28 654.843 1291.27 665.763C1306.43 686.932 1331.53 702.758 1358.8 702.321C1361.41 710.419 1365.7 717.946 1371.45 724.268C1378.68 732.253 1388.91 738.471 1400.39 739.284C1393.58 789.666 1392.93 840.841 1398.01 891.404C1389.58 890.082 1381.63 886.662 1374.41 881.824C1376.14 864.866 1377.48 847.617 1375.97 830.186C1374.49 811.786 1369.01 792.773 1357.7 777.46C1346.67 762.168 1332.1 749.89 1315.92 740.69C1299.71 731.589 1281.6 725.296 1262.59 724.451L1237.29 723.324L1260.71 732.991C1276.99 739.713 1289.67 753.538 1299.03 768.993C1308.55 784.518 1314.79 802.056 1321.73 819.563C1328.67 837.008 1336.28 854.961 1348.78 870.18C1360.99 885.114 1378.04 897.911 1398.45 900.513C1398.62 900.532 1398.77 900.46 1398.93 900.452C1399.01 901.187 1399.07 901.922 1399.15 902.655C1404.96 952.548 1416.33 1001.65 1431.62 1049.38C1422.93 1040.62 1414.24 1031.85 1406.4 1022.3C1363.12 973.224 1326.53 918.495 1294.12 861.528C1261.63 804.531 1233.3 745.197 1205.54 685.594C1186.2 644.095 1167.08 602.435 1147.15 561.124C1147.55 560.562 1147.86 559.944 1147.91 559.24C1148.69 548.632 1150.76 537.816 1154.03 527.693C1155.71 522.684 1157.68 517.679 1160.37 513.644C1163.15 509.472 1167.04 504.599 1169.87 499.826C1182.11 480.531 1190.18 458.825 1194.38 436.463C1196.3 425.244 1197.36 413.884 1197.37 402.493C1197.14 391.121 1196.28 379.723 1194 368.544C1191.64 357.413 1188.7 346.325 1184.13 335.846C1182.08 330.473 1179.52 325.538 1177.5 320.565L1176.04 316.856L1175.4 315.006L1174.63 312.571C1174.23 311.277 1173.95 309.805 1173.71 308.27C1173.48 306.666 1173.01 305.782 1173.41 302.389L1173.7 298.161L1173.85 296.045L1173.89 295.516L1174.15 293.842L1174.71 290.328L1179.26 261.703L1167.85 288.554C1164.38 297.067 1160.85 304.542 1157.96 313.789C1154.92 323.319 1152.71 333.062 1150.99 342.805C1147.55 362.309 1146.03 381.787 1142.37 400.633C1138.46 419.558 1134.28 439.112 1133.51 459.11C1132.68 478.945 1135.52 500.165 1146.55 517.918C1146.64 518.059 1146.78 518.135 1146.88 518.263L1146.58 519.582C1146.47 520.045 1146.66 520.512 1147.01 520.905C1146.51 522.242 1146.04 523.582 1145.59 524.926C1143.24 532.256 1141.56 539.661 1140.4 547.187C1133.89 533.839 1127.3 520.521 1120.54 507.285L1109.25 485.286L1097.46 463.53C1089.7 448.987 1081.56 434.608 1073.04 420.452C1056.05 392.119 1037.68 364.547 1017.4 338.372C1004.76 322.064 991.308 306.228 976.978 291.211C976.416 258.192 968.186 226.679 962.64 195.281C975.54 180.268 994.031 170.579 1012.14 160.334C1031.15 149.998 1049.88 136.564 1063.74 119.163C1092.08 84.6372 1105.67 40.2236 1107.24 -3.62031L1108.24 -31.8188L1098.61 -5.29786ZM941.23 -98.455C947.834 -78.5785 952.053 -57.8969 954.748 -36.9954C956.083 -26.5381 957.052 -16.0175 957.769 -5.46641C958.004 -0.240249 958.82 5.6777 959.366 10.539C959.857 15.1628 959.455 18.7828 957.545 22.0587C946.08 8.75155 938.355 -7.5298 933.1 -24.3942C927.531 -42.1162 924.762 -60.6348 922.263 -79.1931C919.768 -97.7648 917.6 -116.508 913.197 -134.975C909.68 -149.35 904.331 -164.08 894.987 -176.082C901.706 -169.347 907.877 -162.034 913.403 -154.257C925.424 -137.255 934.61 -118.304 941.23 -98.455ZM910.958 -15.2401C901.783 -33.718 899.489 -55.1338 898.891 -76.3054C898.28 -97.5874 899.578 -119.321 897.219 -141.266C896.025 -152.609 893.807 -164.186 889.965 -175.244C899.66 -163.7 905.263 -148.794 908.884 -133.928C913.199 -115.851 915.369 -97.2185 917.865 -78.6068C920.371 -60.0064 923.164 -41.2215 928.863 -23.0773C933.964 -6.70551 941.386 9.3136 952.368 22.799C934.055 17.6328 919.485 2.24303 910.958 -15.2401ZM705.711 -51.4065C719.309 -34.9291 729.87 -15.9705 737.745 4.0151C745.553 24.0203 750.768 45.1883 754.313 66.4772C757.237 84.6939 758.619 103.162 759.339 121.723C755.613 106.238 747.628 92.2715 739.63 79.0537C730.246 63.9589 721.44 48.7844 714.405 32.6026C700.284 0.662339 691.712 -33.7339 689.263 -68.5723C691.216 -66.8571 693.045 -65 694.944 -63.2223C698.703 -59.4492 702.304 -55.5135 705.711 -51.4065ZM719.181 76.4661C707.59 57.9778 696.32 39.3734 688.609 19.4038C680.835 -0.421897 677.126 -21.9195 680.182 -42.7113C680.913 -47.8864 682.117 -52.9783 683.819 -57.8766C684.262 -59.3136 684.81 -60.7051 685.385 -62.0891C688.407 -28.8511 696.847 3.87607 710.341 34.398C717.452 50.7709 726.495 66.3457 735.829 81.353C743.473 93.9567 750.804 106.977 754.511 120.95C748.158 115.4 742.187 109.845 737.195 103.34C730.656 95.0358 725.037 85.7368 719.181 76.4661ZM599.872 178.149C578.618 173.036 559.98 159.357 545.77 142.276C538.47 133.727 531.666 124.391 523.724 115.662C515.825 106.944 506.315 98.9676 495.54 93.6075C492.781 92.1885 489.949 90.9197 487.066 89.7755C494.748 90.8028 502.372 91.8465 509.74 93.695C527.735 98.0171 543.104 109.236 557.074 121.581C571.17 133.818 584.512 147.699 601.22 157.398C609.452 162.315 618.392 166.217 627.866 168.447C635.065 170.033 642.656 170.506 650.035 169.345C635.067 178.412 616.669 182.441 599.872 178.149ZM657.407 164.234C656.893 163.688 656.271 163.321 655.647 163.5C647.039 166.218 637.731 166.058 628.846 164.109C619.956 162.014 611.416 158.313 603.478 153.567C587.404 144.262 574.286 130.656 559.995 118.229C545.91 105.779 529.845 93.9577 510.824 89.3814C501.468 87.0408 492.01 85.9847 482.702 84.7012L465.324 82.3621C473.198 81.5864 481.235 81.7416 489.198 82.6925C510.362 85.026 531.139 91.5503 552.246 97.442C573.476 102.783 593.723 109.605 612.448 120.098C631.064 130.439 647.869 144.195 659.976 161.468C660.112 161.665 660.319 161.779 660.484 161.945C660.322 162.053 660.131 162.107 659.985 162.242C659.166 162.951 658.257 163.562 657.407 164.234ZM714.921 340.259C702.598 332.195 693.878 318.303 684.681 305.271C675.564 292.055 666.324 278.343 654.082 266.793C652.556 265.349 650.975 263.939 649.345 262.571C654.034 264.316 658.62 266.372 662.963 268.876C673.851 275.14 683.436 283.505 691.873 292.915C700.322 302.335 707.699 312.733 714.678 323.412C718.294 328.69 721.216 334.279 725.622 339.567C727.586 341.937 730.203 344.115 733.186 345.611C726.637 345.589 720.468 343.849 714.921 340.259ZM745.173 344.202C744.679 343.291 744.028 342.661 743.579 342.786C738.47 344.181 732.682 341.204 728.977 336.659C725.139 332.097 722.002 326.278 718.394 320.979C711.356 310.209 703.855 299.624 695.176 289.945C686.515 280.283 676.558 271.57 665.184 265.028C657.013 260.318 648.064 256.744 638.742 254.839C637.115 253.818 635.456 252.838 633.757 251.928C644.499 253.019 655.146 255.941 665.102 260.33C682.666 268.001 698.097 280.157 711.543 294.158C718.276 301.178 724.563 308.67 730.537 316.439C736.557 324.169 741.986 332.355 748.299 340.418C748.948 341.253 749.677 342.06 750.357 342.888C748.624 343.376 746.896 343.817 745.173 344.202ZM502.661 287.04C515.203 291.898 525.189 302.097 534.278 313.086L561.728 346.952L589.185 380.893C593.7 386.629 598.697 392.043 601.393 397.657C602.754 400.526 603.471 403.275 603.347 406.103C603.311 407.333 603.078 408.517 602.733 409.621C584.315 385.669 566.589 361.087 546.008 338.627C535.264 327.021 523.696 316.067 510.895 306.604C499.921 298.57 487.893 291.896 475.158 286.944C477.921 285.79 480.71 284.89 483.541 284.487C489.825 283.519 496.466 284.639 502.661 287.04ZM479.85 366.646C472.983 365.444 466.411 363.438 460.395 360.361C454.367 357.301 448.914 353.095 443.763 348.305C441.171 345.938 438.678 343.376 436.177 340.82C433.685 338.166 431.102 335.675 429.616 333.278C428.064 330.756 427.662 328.883 428.32 326.378C428.949 323.872 430.773 320.997 432.724 318.29C440.649 307.454 453.03 299.821 465.177 292.17C466.655 291.263 468.136 290.395 469.622 289.584C483.414 294.457 496.414 301.51 508.268 310.185C520.764 319.425 532.133 330.181 542.74 341.636C561.293 361.875 577.698 384.107 594.44 406.075L550.246 385.676C540.513 381.199 530.582 376.699 520.04 373.372C509.479 370.049 498.511 368.084 487.543 367.349C485.31 367.201 483.098 367.281 480.872 367.217C480.572 366.92 480.233 366.713 479.85 366.646ZM401.907 397.643C405.963 389.521 414.95 384.867 424.77 382.394C444.99 377.551 466.23 374.801 486.922 376.212C497.286 376.907 507.516 378.751 517.36 381.845C527.233 384.957 536.842 389.289 546.525 393.746L596.199 416.674C580.467 419.032 564.28 415.948 548.848 411.269C532.34 406.33 516.154 399.791 499.1 395.457C466.329 386.998 430.795 390.441 400.057 404.576C400.157 402.234 400.74 399.902 401.907 397.643ZM490.928 466.303L462.073 480.134C457.449 482.265 452.902 483.852 448.9 483.451C444.928 483.108 441.222 480.836 438.281 477.314C432.082 470.268 430.432 460.117 427.151 449.392C425.505 444.11 423.063 438.409 419.383 433.759C415.855 429.097 411.857 425.348 408.408 421.528C404.926 417.748 401.989 413.893 400.708 409.842C400.64 409.629 400.63 409.412 400.573 409.199C430.672 394.975 465.746 391.427 498.016 399.764C514.67 403.989 530.804 410.498 547.579 415.527C563.941 420.483 581.646 423.905 599.096 420.732C593.796 425.068 587.392 428.349 580.6 430.901C570.93 434.511 560.589 436.991 550.184 440.174C539.653 443.289 529.535 447.797 519.867 452.416L506.544 458.81C505.469 458.505 504.415 458.616 503.695 459.301C503.161 459.808 502.703 460.385 502.179 460.905L490.928 466.303ZM520.75 583.664C513.591 583.513 506.388 581.445 499.541 578.402C492.789 575.256 485.645 571.533 481.045 566.731C478.726 564.265 477.231 561.671 476.476 558.443C475.694 555.24 475.497 551.448 475.485 547.629C474.963 518.364 486.899 489.041 507.469 468.22L523.681 460.438C533.299 455.849 542.788 451.626 552.79 448.669C562.828 445.588 573.337 443.085 583.724 439.219C587.397 437.836 591.106 436.216 594.703 434.291C592.95 446.889 589.53 459.288 581.144 468.498C571.254 479.601 556.57 485.8 544.988 496.794C533.622 507.604 524.799 522.316 524.29 538.698C524.043 546.914 526.616 554.687 528.664 561.935C530.627 569.094 532.266 576.677 529.214 582.784C526.445 583.394 523.607 583.756 520.75 583.664ZM608.719 439.077C608.135 446.221 605.639 452.935 601.467 459.079C593.269 471.518 580.512 480.962 569.309 492.922C563.758 498.926 558.552 505.613 554.945 513.458C551.186 521.192 549.965 530.532 550.55 538.65C550.927 546.826 552.009 554.541 550.963 561.484C549.997 568.389 546.34 574.113 540.599 578.033C538.719 579.309 536.654 580.297 534.526 581.154C535.297 578.291 535.49 575.306 535.257 572.49C534.942 568.386 533.982 564.502 532.948 560.751C530.814 553.249 528.503 546.114 528.733 538.807C529.156 524.059 537.29 510.217 548.046 500.02C558.788 489.677 573.586 483.493 584.458 471.458C589.889 465.465 593.574 458.057 595.844 450.485C597.733 444.218 598.795 437.816 599.55 431.441C602.124 429.777 604.579 427.901 606.877 425.801C608.454 429.879 609.101 434.47 608.719 439.077ZM669.762 548.969C671.521 547.61 673.363 546.333 675.021 544.866C681.872 539.221 688.077 532.956 693.911 526.482C705.578 513.519 715.805 499.69 726.974 487.005C738 474.491 750.892 463.481 765.465 455.873C777.103 449.756 790.251 446.289 802.843 447.626C801.371 448.801 799.894 449.966 798.452 451.177C798.046 450.612 797.554 450.217 797.039 450.352C782.72 454.17 769.313 461.328 758.155 471.065C746.99 480.807 738.02 492.279 727.964 502.536C717.979 512.916 707.478 522.8 696.499 532.121C687.078 539.964 677.361 548.529 666.068 551.573C666.394 551.357 666.743 551.125 667.05 550.919C667.995 550.324 668.876 549.641 669.762 548.969ZM726.745 522.937C715.379 532.482 702.805 540.658 689.201 546.07C687.279 546.831 685.297 547.391 683.337 548.031C689.028 544.166 694.22 539.829 699.37 535.51C710.464 526.093 721.075 516.106 731.163 505.618C741.362 495.198 750.355 483.744 761.064 474.423C770.154 466.49 780.844 460.498 792.254 456.602C791.748 457.06 791.218 457.485 790.716 457.949C767.95 479.046 749.556 503.671 726.745 522.937ZM974.241 800.316L977.462 797.761C979.424 796.232 981.323 794.625 983.363 793.198C1029.48 758.621 1083.08 734.056 1139.32 721.374C1113.75 737.284 1088.28 753.366 1062.58 769.043C1037.18 783.693 1010.63 797.517 982.001 803.067C980.606 802.647 979.198 802.262 977.831 801.768L974.241 800.316ZM1110.34 758.432C1095.02 771.23 1079.15 783.29 1061.71 792.287C1044.38 801.374 1025.23 806.806 1005.92 806.657C1001.15 806.632 996.407 806.223 991.746 805.426C1017.78 798.809 1041.88 786.101 1064.8 772.893C1091.96 756.331 1118.83 739.32 1145.85 722.538C1137.58 736.402 1123.41 747.177 1110.34 758.432ZM1146.78 1019.57C1153.68 1020.33 1160.61 1020.91 1167.49 1020.94C1195.05 1021.4 1221.95 1017.39 1248.49 1018.15C1300.81 1019.6 1352.28 1041.68 1389.57 1078.36C1389.41 1078.39 1389.25 1078.41 1389.09 1078.43C1388.86 1077.92 1388.45 1077.51 1387.89 1077.31C1346.53 1062.15 1303.2 1052.37 1259.36 1048.25C1237.5 1046.12 1215.61 1044.78 1194.27 1040.61C1174.92 1036.86 1155.83 1030.24 1140.16 1018.55L1141.62 1018.78L1146.78 1019.57ZM1377.14 1080.11C1350.2 1084.27 1324.05 1090.87 1297.54 1089.88C1244.51 1089.15 1191.99 1068.48 1152.34 1033.35C1150.51 1031.81 1148.8 1030.14 1147.07 1028.49C1161.34 1036.82 1177.42 1041.87 1193.41 1044.96C1215.15 1049.21 1237.17 1050.54 1258.93 1052.67C1300.51 1056.58 1341.55 1065.66 1380.91 1079.58C1379.65 1079.77 1378.38 1079.91 1377.14 1080.11ZM1551.28 824.132C1545.54 848.083 1533.82 870.384 1518.24 889.583C1502.73 908.885 1483.49 925.109 1462.54 938.463C1458.12 941.33 1453.55 944.017 1449.01 946.939C1448.9 946.304 1448.82 945.666 1448.73 945.029C1465.87 917.818 1485.63 892.452 1507.33 868.564C1513.03 862.011 1518.61 855.288 1523.65 848.11C1528.67 840.916 1533.11 833.348 1537.08 825.57C1544.15 811.682 1549.8 797.216 1555.22 782.751C1555.95 796.605 1554.62 810.615 1551.28 824.132ZM1460.66 895.318C1470.21 878.904 1484.21 865.188 1498.41 851.689C1512.62 838.177 1527.62 824.618 1539.29 807.848C1540.39 806.272 1541.45 804.637 1542.49 802.999C1539.59 809.964 1536.54 816.85 1533.12 823.551C1529.23 831.18 1524.89 838.565 1520.01 845.559C1515.11 852.54 1509.63 859.148 1503.98 865.651C1483.6 888.073 1464.72 912.156 1448.18 937.715C1448.01 923.097 1453.06 908.27 1460.66 895.318ZM1350.46 782.609C1360.72 796.527 1365.66 813.511 1367.12 830.955C1368.39 845.58 1367.51 860.455 1366.1 875.379C1365.34 874.703 1364.58 874.023 1363.84 873.319C1358.89 863.748 1357.21 852.297 1354.55 841.237C1351.65 827.105 1344.18 814.375 1337.08 802.465C1329.89 790.389 1323.11 778.219 1315.55 766.206C1308.54 755.36 1299.94 744.491 1287.99 738.063C1296.15 740.668 1304.07 744.206 1311.54 748.414C1326.7 757.02 1340.34 768.563 1350.46 782.609ZM1329.98 816.283C1323.11 798.988 1316.74 780.915 1306.61 764.356C1303.26 758.826 1299.42 753.43 1295.13 748.372C1301.64 754.036 1307.05 761.217 1311.81 768.613C1319.2 780.345 1326.09 792.683 1333.25 804.711C1340.43 816.804 1347.44 828.703 1350.23 842.274C1351.98 849.389 1353.28 856.984 1355.5 864.352C1344.15 850.498 1336.81 833.485 1329.98 816.283ZM1548.65 609.249C1549.37 609.052 1549.34 609.129 1549.55 609.205C1549.81 609.33 1550.49 610.029 1551.09 611.119C1552.37 613.375 1553.29 615.874 1553.75 618.533C1554.67 623.847 1553.96 629.627 1552.04 634.941C1548.13 645.746 1539.64 654.986 1531.22 664.28C1514.31 682.729 1495.76 699.87 1475.95 714.99C1466.05 722.378 1455.56 728.684 1443.97 731.528C1434.41 733.891 1423.86 735.145 1414.67 733.429C1425.77 726.696 1435.4 717.557 1442.66 706.787C1447.05 700.275 1450.55 693.053 1453.13 685.747C1455.8 678.513 1458.16 671.284 1462.21 665.208C1466.17 659.131 1472.25 654.571 1477.98 649.223C1480.84 646.548 1483.62 643.576 1485.86 640.162C1488.08 636.76 1489.77 633.121 1491.21 629.484C1494.12 622.244 1496.15 614.805 1499.95 608.625C1503.21 603.266 1507.94 598.629 1513.57 596.881C1515.42 598.927 1517.17 601.454 1519.26 604.082C1521.37 606.787 1524.11 609.541 1527.45 611.499C1530.72 613.47 1535.31 614.914 1539.96 613.608C1544.5 612.202 1546.99 609.659 1548.65 609.249ZM1509.48 593.523C1503.69 596.211 1499.28 601.221 1496.16 606.303C1491.91 613.286 1489.91 620.873 1487.09 627.84C1484.42 634.951 1480.59 640.985 1474.94 645.985C1469.51 651.099 1463.03 655.873 1458.51 662.749C1454.02 669.521 1451.61 677.086 1448.96 684.208C1446.43 691.383 1443.16 698.065 1438.98 704.305C1434.38 711.123 1428.72 717.184 1422.38 722.421C1423.6 720.481 1424.79 718.521 1425.89 716.515C1431.07 707.267 1434.74 696.952 1437.38 687.015C1440.13 677.112 1442.78 667.66 1448.09 659.83C1453.42 651.849 1460.64 644.8 1467.72 637.2C1474.73 629.675 1482.07 621.113 1485.45 609.989C1486.2 607.575 1486.63 605.074 1486.84 602.553C1487.02 602.489 1487.23 602.473 1487.37 602.349C1492.18 598.212 1496.82 593.918 1501.32 592.365C1504.04 591.431 1506.84 591.975 1509.48 593.523ZM1422.3 557.918C1432.26 559.077 1442.04 560.881 1450.89 564.621C1459.69 568.246 1467.41 574.198 1472.54 581.917C1477.79 589.568 1479.55 598.846 1476.91 607.501C1474.32 616.158 1468.08 623.839 1461.2 631.158C1454.36 638.539 1446.77 645.847 1440.67 654.934C1434.42 664.199 1431.55 674.875 1428.83 684.613C1426.2 694.456 1422.92 703.574 1418.1 712.24C1415.73 716.547 1413.08 720.706 1410.14 724.651C1408.69 726.577 1407.06 728.779 1405.83 729.882C1405.19 730.457 1404.65 730.758 1404.24 730.874C1404.15 730.925 1403.81 730.905 1403.61 730.807C1403.58 730.724 1403.45 730.871 1403.26 731.065C1402.74 730.72 1402.19 730.473 1401.6 730.482C1394.96 730.174 1388.56 727.35 1383.13 723.059C1377.69 715.112 1374.87 705.07 1374.36 695.36C1373.6 680.048 1378.31 664.842 1382.99 649.893C1393.27 620.253 1397.68 588.112 1394.34 556.695C1402.96 555.648 1412.82 557.046 1422.3 557.918ZM1381.83 572.696C1381.51 570.153 1380.8 566.952 1380.5 565.143C1380.38 564.21 1380.43 563.776 1380.55 563.419C1380.69 563.011 1381.05 562.453 1381.63 561.861C1383.66 559.913 1386.67 558.378 1389.95 557.463C1393.13 588.185 1388.9 619.275 1378.76 648.561C1374.09 663.556 1369.14 679.153 1369.93 695.6C1370.22 700.825 1371.15 706.03 1372.67 711.07C1369.26 705.631 1366.77 699.584 1365.63 693.284C1362.12 674.232 1367.36 654.345 1372.92 634.868C1378.43 615.329 1384.72 594.528 1381.83 572.696ZM1330.76 558.538C1334.55 562.36 1337.02 567.747 1337.75 573.265C1338.15 576.013 1338.06 579.285 1338.55 582.982C1338.99 586.754 1340.68 590.701 1342.72 593.816C1346.99 600.103 1352.54 604.19 1357.18 608.397C1361.95 612.511 1365.83 616.864 1366.48 621.421C1366.49 621.737 1366.8 622.03 1367.21 622.303C1366.29 625.682 1365.34 629.062 1364.38 632.433C1358.97 651.554 1353.3 672.16 1356.7 693.397C1356.28 693.39 1355.86 693.381 1355.43 693.365C1343.07 686.284 1331.7 677.453 1321.79 667.215C1316.8 662.079 1312.16 656.596 1307.97 650.795C1303.75 645.031 1299.97 638.959 1297.64 632.412C1295.26 625.902 1294.61 618.893 1296.67 612.431C1298.69 605.926 1302.86 600.095 1307.15 594.296C1311.43 588.549 1316.11 582.395 1318.62 575.116C1321.08 568.392 1322.04 560.072 1318.21 553.064C1322.92 553.16 1327.36 555.044 1330.76 558.538ZM1298.42 660.486C1291.07 650.465 1285.45 639.035 1281.37 627.199C1279.4 621.355 1278.05 615.423 1278.47 609.871C1278.8 604.334 1281.29 599.431 1284.99 594.474C1288.62 589.52 1293.21 584.637 1296.81 578.396C1300.57 571.936 1301.66 565.078 1304.35 560.468C1306.37 556.685 1309.87 554.389 1314.01 553.467C1313.86 553.85 1313.79 554.223 1313.96 554.479C1317.38 559.938 1316.78 567.222 1314.43 573.611C1312.18 580.177 1307.94 585.794 1303.57 591.657C1299.27 597.492 1294.76 603.664 1292.42 611.124C1290.03 618.609 1290.83 626.82 1293.45 633.904C1296.01 641.075 1300.04 647.464 1304.37 653.409C1308.69 659.381 1313.46 665.024 1318.6 670.309C1326.54 678.506 1335.4 685.804 1344.93 692.086C1338.27 690.662 1331.76 688.3 1325.74 684.976C1314.95 679.133 1305.8 670.485 1298.42 660.486ZM915.586 544.556C915.62 544.562 915.636 544.563 915.586 544.556V544.556ZM915.586 544.556C915.655 544.568 915.96 544.616 917.061 544.797C920.22 545.341 923.406 545.739 926.523 546.512C932.761 548.001 939.109 549.038 945.247 550.931C970.032 557.573 994.018 567.187 1016.6 579.393C1057.18 601.175 1092.89 631.857 1120.79 668.424C1052.5 630.62 985.167 591.092 918.895 549.853L915.586 544.556ZM1055.93 654.751C1008.02 636.463 963.222 607.909 931.505 567.635C929.19 564.744 927.003 561.758 924.866 558.736C990.01 599.079 1056.14 637.834 1123.22 674.87C1100.33 669.641 1077.75 663.18 1055.93 654.751ZM1166.42 316.471L1166.47 316.288L1166.48 316.292L1167.7 319.909L1169.29 323.955C1171.45 329.279 1174.03 334.225 1175.92 339.244C1180.26 349.152 1183.03 359.673 1185.27 370.24C1187.45 380.852 1188.25 391.697 1188.48 402.518C1188.47 413.358 1187.46 424.178 1185.64 434.862C1181.63 456.154 1173.94 476.797 1162.35 495.074C1159.78 499.371 1156.98 502.933 1153.97 507.28L1162.26 471.356C1165.93 455.097 1170.64 438.214 1168.68 420.783C1166.76 403.612 1160.8 387.716 1160.78 371.147C1160.36 354.578 1163.35 338.025 1166.42 321.519C1166.54 320.904 1166.08 320.366 1165.45 319.96C1165.8 318.804 1166.05 317.619 1166.42 316.471ZM1142.39 459.44C1143.12 440.365 1147.11 421.547 1151.09 402.301C1153.41 390.342 1154.88 378.384 1156.44 366.542C1156.43 368.114 1156.3 369.674 1156.34 371.254C1156.41 388.614 1162.5 404.943 1164.26 421.243C1166.14 437.604 1161.66 453.972 1157.94 470.353L1149.89 505.171C1143.6 491.192 1141.72 475.206 1142.39 459.44ZM1008.79 122.779C1018.5 108.475 1030.04 95.3173 1042.15 82.7197C1054.34 70.1106 1067.11 57.7361 1078.69 44.0095C1080.92 41.3761 1083.08 38.6617 1085.2 35.9056C1075.36 59.3399 1064.28 82.3052 1047.76 101.377C1038.13 113.081 1025.2 121.64 1013.47 131.625C1006.1 137.905 999.273 144.813 992.954 152.153C996.909 141.886 1002.53 132.055 1008.79 122.779ZM1056.88 113.491C1043.65 130.003 1026.6 142.29 1007.75 152.591C1001.98 155.884 996.023 159.173 990.116 162.65C997.884 152.571 1006.66 143.264 1016.34 135.012C1027.99 125.085 1041.06 116.462 1051.12 104.291C1071.69 80.5062 1083.84 51.3595 1095.34 22.9457C1095.5 22.5553 1095.4 22.1074 1095.13 21.7001C1095.52 21.0713 1095.88 20.4274 1096.27 19.7919C1091.44 53.902 1078.65 87.0221 1056.88 113.491Z" fill="#EA9A21" fill-opacity="0.11"/>
</g>
<defs>
<clipPath id="clip0_2_107">
<rect width="1940.22" height="1940.22" fill="white" transform="translate(-189 716.227) rotate(-53.33)"/>
</clipPath>
</defs>
</svg>
